# xmcd
#
# Track frame offsets:
#	150
#	14309
#	28900
#	44582
#	57859
#	73227
#	90786
#	105611
#	119036
#	137701
#	150942
#	169260
#	186619
#
# Disc length: 2720 seconds
#
# Revision: 0
# Processed by: cddbd v1.5.2PL0 Copyright (c) Steve Scherf et al.
# Submitted via: EasyCDDAExtractor 11.5.3.1
#
DISCID=b50a9e0d
DTITLE=Martti Mets‰kedon Tanssiorkesteri - Taas Tanssitaan
DYEAR=2008
DGENRE=
TTITLE0=Kun Soitti Dallape
TTITLE1=No Kai Nyt Sent‰‰n
TTITLE2=On Toukokuu
TTITLE3=Jos Siltaa K‰ytt‰‰ Voisin
TTITLE4=Jalokivi
TTITLE5=Jump Jive And Wail
TTITLE6=Heilini Sinisist‰ Silmist‰
TTITLE7=Kes‰n Vihre‰t Lehv‰t
TTITLE8=H‰n
TTITLE9=Volare
TTITLE10=Charade
TTITLE11=Kaapparilaiva
TTITLE12=Vinetan Kellot
EXTD=
EXTT0=
EXTT1=
EXTT2=
EXTT3=
EXTT4=
EXTT5=
EXTT6=
EXTT7=
EXTT8=
EXTT9=
EXTT10=
EXTT11=
EXTT12=
PLAYORDER=
